<?xml version="1.0" encoding="utf-8"?>
<!-- Generator: Adobe Illustrator 22.0.1, SVG Export Plug-In . SVG Version: 6.00 Build 0)  -->
<svg version="1.1" xmlns="http://www.w3.org/2000/svg" xmlns:xlink="http://www.w3.org/1999/xlink" x="0px" y="0px"
	 viewBox="0 0 127 127" style="enable-background:new 0 0 127 127;" xml:space="preserve">
<style type="text/css">
	.st0{fill:#F2FAFF;}
	.st1{fill:#79BA7E;}
	.st2{fill:#788B9C;}
	.st3{fill:#FFFFFF;}
</style>
<g id="Layer_1">
</g>
<g id="Whatsapp">
	<path class="st0" d="M12.7,87.1l-0.2-0.3c-5.2-8.3-7.9-17.7-7.9-27.3C4.7,29.5,31.3,5,64,5c15.9,0,30.8,5.7,42,16
		c11.2,10.3,17.4,24,17.4,38.6c0,30.1-26.6,54.5-59.3,54.5c-9.9,0-19.7-2.3-28.4-6.6l-0.3-0.1l-30.9,7.4L12.7,87.1z"/>
	<path class="st1" d="M63.7,103.6c-8,0-15.8-1.8-22.8-5.3L36.4,96l-5,1.2l-10.3,2.5l2.6-8.9l1.4-4.8l-2.7-4.3
		c-4.2-6.6-6.4-14.2-6.4-21.9C16.1,35.6,37.5,16,63.7,16c12.7,0,24.7,4.6,33.7,12.8c9,8.3,14,19.3,14,31
		C111.4,84,90,103.6,63.7,103.6z"/>
	<path class="st2" d="M64,5.8L64,5.8c15.7,0,30.4,5.6,41.4,15.8c11.1,10.2,17.1,23.7,17.1,38.1c0,29.7-26.3,53.8-58.6,53.8
		c-9.8,0-19.4-2.3-28-6.5l-0.6-0.3l-0.6,0.1l-29.2,7l7.8-26.2l0.2-0.6l-0.3-0.5C8.2,78.3,5.5,69,5.5,59.6C5.5,29.9,31.7,5.8,64,5.8
		 M64,4.3C30.9,4.3,3.9,29.1,3.9,59.6c0,9.7,2.8,19.2,8,27.6l-8.5,28.6l31.9-7.7c8.8,4.4,18.7,6.7,28.7,6.7h0
		c33.1,0,60.1-24.8,60.1-55.3c0-14.8-6.3-28.7-17.6-39.1C95.2,10.1,80.1,4.3,64,4.3L64,4.3z"/>
	<path class="st3" d="M90.1,70.6c-1.4-0.7-8.5-3.8-9.8-4.3C79,65.9,78,65.7,77.1,67c-1,1.3-3.7,4.3-4.5,5.1c-0.8,0.9-1.7,1-3.1,0.3
		c-1.4-0.7-6-2-11.5-6.5c-4.2-3.5-7.1-7.8-7.9-9.1c-0.8-1.3-0.1-2,0.6-2.7c0.6-0.6,1.4-1.5,2.1-2.3c0.7-0.8,1-1.3,1.4-2.2
		c0.5-0.9,0.2-1.6-0.1-2.3c-0.4-0.7-3.2-7.1-4.4-9.7c-1.2-2.6-2.3-2.2-3.2-2.3c-0.8,0-1.8,0-2.7,0c-1,0-2.5,0.3-3.8,1.6
		c-1.3,1.3-5,4.5-5,11s5.1,12.7,5.8,13.6c0.7,0.9,10.1,14.1,24.4,19.8c3.4,1.3,6.1,2.2,8.1,2.8c3.4,1,6.5,0.9,9,0.5
		c2.7-0.4,8.5-3.2,9.6-6.2c1.2-3.1,1.2-5.7,0.8-6.2C92.5,71.6,91.5,71.2,90.1,70.6z"/>
</g>
</svg>
