<?xml version="1.0" encoding="utf-8"?>
<!-- Generator: Adobe Illustrator 22.0.1, SVG Export Plug-In . SVG Version: 6.00 Build 0)  -->
<svg version="1.1" id="Layer_1" xmlns="http://www.w3.org/2000/svg" xmlns:xlink="http://www.w3.org/1999/xlink" x="0px" y="0px"
	 viewBox="0 0 512 512" style="enable-background:new 0 0 512 512;" xml:space="preserve">
<style type="text/css">
	.st0{fill:#EA4335;}
	.st1{fill:#4285F4;}
	.st2{fill:#FBBC04;}
	.st3{fill:#089D57;}
</style>
<g>
	<g>
		<path class="st0" d="M140.4,256.5l71.7-49.6c16.9-11.7,22.6-37.5,12.9-57.7s-31.3-27.1-48.2-15.5L53,219.4L140.4,256.5z"/>
	</g>
	<g>
		<path class="st1" d="M194.4,383.9c12.2,0,24-7.6,30.6-21.1c9.7-20.2,4-46-12.9-57.7L88.3,219.4c-16.9-11.7-38.4-4.7-48.2,15.5
			c-9.7,20.2-4,46,12.9,57.7l123.8,85.6C182.4,382,188.4,383.9,194.4,383.9z"/>
	</g>
	<g>
		<path class="st2" d="M317.6,383.9c6,0,12-1.8,17.6-5.7L459,292.6l-86.3-37.8L299.9,305c-16.9,11.7-22.6,37.5-12.9,57.7
			C293.5,376.3,305.4,383.9,317.6,383.9z"/>
	</g>
	<g>
		<path class="st3" d="M441.3,298.2c12.2,0,24-7.6,30.6-21.1c9.7-20.2,4-46-12.9-57.7l-123.8-85.6c-16.9-11.7-38.4-4.7-48.2,15.5
			c-9.7,20.2-4,46,12.9,57.7l123.8,85.6C429.3,296.4,435.4,298.2,441.3,298.2z"/>
	</g>
</g>
</svg>
